<?xml version="1.0" encoding="UTF-8"?><svg id="Layer_1" xmlns="http://www.w3.org/2000/svg" viewBox="0 0 360 360"><defs><style>.cls-1{fill:#ffd600;}.cls-2{fill:#000006;}</style></defs><g><polygon class="cls-1" points="-3 189.47 -3 189.47 -3 330.62 363 152.22 363 11.08 -3 189.47"/><path class="cls-2" d="M194.78,148.59h0c-2.28-1.41-4.82-1.41-7.54-.11-4.18,2.06-7.93,6.12-10.53,11.59-2.76,5.63-4.23,12.34-4.23,19.33,0,7.47,2.5,13.27,6.84,15.97,1.69,1.03,3.53,1.57,5.37,1.57,1.58,0,3.15-.38,4.67-1.14,7.44-3.63,10.63-14.24,10.63-14.35l-3.04-.82c-.05,.11-3.85,8.45-8.3,10.62-1.41,.7-2.66,.7-3.69,.05-2.5-1.52-3.86-7.09-3.86-16.02v-.11l20.41-10.02c0-7.25-2.77-14.07-6.73-16.57Zm-13.51,21.82h0c.38-4.99,1.3-9.43,2.65-12.83,1.19-2.92,2.66-4.98,4.18-5.69,.65-.32,1.3-.32,1.9,.06,2.01,1.19,3.26,6.17,3.26,12.61l-11.99,5.85Zm-13.79-11.16h0l-5.86,34.65-6.57-28.59-6.13,2.98-5.86,34.65-6.57-28.64-7.11,3.46,9.5,41.58,6.73-3.3,5.59-33.13,6.24,27.39,6.73-3.3,8.46-50.25-5.16,2.49Zm-42.11,23.07h0c-2.06-1.3-4.82-1.3-7.54,.06-3.91,1.89-5.91,4.81-6.73,6.28v-25.4l-8.51,4.17v69.57l8.51-4.17v-33.73c0-2.93,.71-5.69,2.06-8.13,1.09-1.95,2.28-3.25,3.47-3.79,.87-.43,1.58-.48,2.17-.11,1.53,.92,1.74,4.17,1.74,5.95v35.2l8.51-4.12v-33.13c0-4.11-1.3-7.2-3.69-8.66Zm-28.44,47.11h0c-.05,.05-3.85,8.44-8.3,10.61-1.41,.7-2.66,.7-3.69,.05-2.5-1.57-3.86-7.09-3.86-16.02,0-4.71,.54-9.58,1.95-14.08,1.14-3.51,3.1-8.01,6.94-9.25,2.77-.87,5.48,.27,7.65,1.95,0-.87-.06-5.2-.06-5.2-.05,0-.98-.87-2.76-1.31-1.63-.43-4.23-.59-7.6,1.03-4.12,2.06-7.92,6.17-10.53,11.58-2.76,5.64-4.23,12.35-4.23,19.39,0,7.42,2.5,13.27,6.89,15.97,1.63,1.03,3.47,1.52,5.32,1.52,1.58,0,3.15-.32,4.67-1.08,7.44-3.63,10.64-14.29,10.64-14.4l-3.05-.76Zm194.1-127.67h0c-2.28-1.41-4.77-1.46-7.49-.11-4.18,2.01-7.93,6.12-10.58,11.53-2.77,5.63-4.23,12.35-4.23,19.39,0,7.42,2.5,13.27,6.89,15.97,1.63,1.02,3.47,1.52,5.32,1.52,1.58,0,3.15-.32,4.67-1.08,7.49-3.63,10.63-14.3,10.68-14.41v-.05l-3.04-.82-.05,.11c-.06,.06-3.86,8.45-8.25,10.62-1.47,.7-2.66,.7-3.75,.05-2.5-1.57-3.8-7.09-3.8-16.02v-.17l20.35-9.96v-.06c0-7.25-2.77-14.02-6.73-16.51Zm-13.46,21.77h0c.33-4.98,1.25-9.37,2.6-12.77,1.19-2.98,2.72-4.98,4.18-5.74,.33-.11,.65-.22,.93-.22,.38,0,.7,.11,1.03,.32,1.95,1.19,3.2,6.11,3.2,12.56l-11.94,5.85Zm37.17,21.82h0c-2.77,0-5.21,2.11-5.27,4.93,0,2.81,2.34,5.09,5.1,5.15,2.71,0,5.1-2.17,5.16-5.04,.05-2.81-2.34-4.98-4.99-5.04Zm-.11,9.21h0c-2.34-.06-4.12-1.9-4.12-4.28,.05-2.33,1.9-4.17,4.23-4.11,2.17,0,4.01,1.89,3.96,4.22,0,2.38-1.9,4.17-4.07,4.17Zm2.33-5.53h0c0-1.08-.7-1.57-2-1.57h-2.23v5.69h.87l-.05-2.44h1.03l1.52,2.44h1.03l-1.63-2.49c.87-.11,1.46-.6,1.46-1.63Zm-3.36,.97h0v-1.84h1.19c.65,0,1.25,.17,1.25,.87,0,.87-.6,.97-1.3,.97h-1.14Zm-86.71-17.38h0c-2.06-1.3-4.45-1.3-7,0-2.6,1.25-5.26,4.6-7.05,8.99v-4.44l-8.35,4.01v68.43l8.35-4.06v-30.69c1.36,2.65,3.1,4.38,5.05,5.03,1.68,.54,3.42,.38,5.21-.48,3.42-1.68,6.24-5.3,8.14-10.5,1.79-4.66,2.77-10.51,2.77-16.46,0-4.17-.65-8.39-1.79-11.86-1.3-3.84-3.09-6.6-5.32-7.96Zm-6.89,42.13h0c-.92,.54-1.95,.7-2.87,.11-2.6-1.62-4.29-8.18-4.29-16.73,0-3.85,.17-7.85,.98-11.64,.54-2.6,2.99-10.02,7.17-7.42,2.93,1.84,4.56,10.13,4.56,16.9,0,3.79-.33,7.63-1.19,11.32-.49,1.84-1.03,3.79-2.06,5.41-.49,.76-1.3,1.57-2.29,2.06Zm-172.11,19.49h0c0-4.06,2.55-7.74,6.46-8.93,4.45-1.36,9.22-.17,12.91,2.54l-.05-6.82c-3.42-1.41-7-2.01-10.31-1.68-3.58,.32-6.89,1.68-9.77,4.01-3.31,2.76-7,7.47-7,16.56,0,11.21,7.11,18.52,13.19,25.45,4.94,5.63,9.39,11.42,9.39,17.6,0,5.63-3.09,10.56-8.03,11.69-3.26,.76-8.36,.43-14-3.9l.05,8.23c1.84,1.24,5.53,2.43,9.77,2.43,3.64,0,7.6-.81,11.29-3.25,4.18-2.87,9.17-8.55,9.17-19.44,0-10.23-6.45-17.87-12.7-25.28-5.32-6.34-10.36-12.35-10.36-19.23Zm211.62-77.48h0c-2.11-1.3-4.5-1.3-7.05,0-2.6,1.25-5.21,4.6-7.05,8.99v-4.5l-8.3,4.06v68.43l8.3-4.06v-30.69c1.36,2.6,3.1,4.33,5.05,5.03,1.68,.54,3.41,.38,5.21-.48,3.41-1.68,6.24-5.3,8.2-10.5,1.74-4.66,2.71-10.56,2.71-16.46,0-4.22-.65-8.39-1.79-11.86-1.24-3.84-3.09-6.6-5.27-7.96Zm-6.89,42.13h0c-.93,.54-2.01,.7-2.93,.11-2.6-1.62-4.29-8.18-4.29-16.73,0-3.85,.17-7.85,.98-11.64,.54-2.6,2.99-10.07,7.16-7.42,2.93,1.79,4.56,10.13,4.56,16.9,0,3.79-.33,7.63-1.19,11.32-.48,1.84-.98,3.79-2.06,5.41-.48,.76-1.3,1.57-2.22,2.06Zm67.12-34.71h0c0-12.83-15.08-16.95-15.08-24.96,0-2.6,1.74-4.98,4.28-5.69,2.77-.76,5.7,.11,8.14,1.41v-4.38s-5.48-2.98-11.88,.48c-2.82,1.73-6.41,4.66-6.41,11.1,0,13.16,14.81,14.83,14.81,24.96-.38,6.99-9.49,6.93-14.38,5.09l.06,5.15c9.55,3.14,21.16-3.31,20.4-14.02"/></g><g><g><polygon class="cls-2" points="64.97 296.29 64.97 296.29 64.97 347.03 295.03 234.76 295.03 184.03 64.97 296.29"/><path class="cls-1" d="M63.79,348.92v-53.38l.67-.32,231.76-113.09v53.37l-.67,.32L63.79,348.92Zm2.37-51.89v48.1l227.68-111.1v-48.1l-227.68,111.1Z"/></g><g><path class="cls-1" d="M91.17,300.71c2.55-1.24,4.8-.45,5.75,1.51,1.24,2.55,0,5.58-2.67,6.88-.59,.29-1.19,.51-1.86,.63l-.32-.3c.26-.03,.56-.15,.95-.34,2.2-1.07,2.93-3.72,1.77-6.09-.72-1.47-2.26-2.3-4.15-1.38l-1.3,.64,3.05,12.71c.34,1.37,.7,1.95,2.64,1.01l.12,.45-6.28,3.06-.12-.45c1.49-.73,1.88-1.68,1.58-3.07l-2.59-10.79c-.3-1.39-1.07-1.77-2.62-1.02l-.1-.46,6.15-3Z"/><path class="cls-1" d="M109.11,306.5c-.95-.87-2.15-2.18-3.35-2.68-.62-.28-1.22-.34-1.81-.05l-.9,.44,1.22,4.98c.34,1.37,.7,1.95,2.62,1.02l.12,.45-6.26,3.05-.12-.45c1.49-.73,1.88-1.67,1.58-3.07l-2.59-10.79c-.34-1.37-1.07-1.78-2.62-1.02l-.12-.45,6.24-3.04c2.81-1.37,5.11-.48,5.9,1.39,.95,2.36-.95,4.98-3.85,6.59,2.7-.46,5.39,1.89,6.94,3,.94,.68,1.81,1.01,2.6,.62,.35-.17,.67-.43,.75-.54l-.04,.5c-.28,.31-.85,.79-1.89,1.3-2.22,1.08-3.18-.11-4.42-1.25Zm-6.19-2.91l.96-.47c2.12-1.03,3.95-3.49,2.91-5.88-.59-1.48-2.27-2.37-4.45-1.31l-1.14,.56,1.72,7.1Z"/><path class="cls-1" d="M127.07,300.86l-12.12,5.91-.12-.45c1.49-.73,1.88-1.68,1.58-3.07l-2.59-10.79c-.3-1.39-1.07-1.78-2.62-1.02l-.1-.46,11.04-5.39,.91,3.82-.43,.21c-1.02-2.3-2.27-2.53-4.06-1.65l-3.16,1.54,1.64,6.77,1.71-.83c1.16-.57,1.77-1.6,1.5-3.55l.43-.21,1.31,5.64-.43,.21c-.79-2.04-1.5-2.09-2.64-1.54l-1.75,.85,1.3,5.4c.3,1.39,1.06,1.65,2.61,.9l1.65-.81c2.89-1.41,3.27-3.74,3.49-6.34l.43-.21,.43,5.06Z"/><path class="cls-1" d="M132.86,298.04l-4.97,2.42-.12-.45c1.49-.73,1.7-1.69,1.62-3.09l-.74-11.7c-.1-1.44-1.05-1.78-2.01-1.32l-.1-.46,4.03-1.97c.45,.92,1.3,2.14,2.22,3.61l4.59,7.35,2.18-15.34,4.32-2.11,.1,.46c-1.53,.75-1.98,1.67-1.62,3.09l2.73,10.72c.34,1.37,1.05,1.78,2.6,1.03l.12,.45-6.3,3.07-.12-.45c1.55-.76,1.96-1.72,1.62-3.09l-3.03-11.84-2.53,17.35-.47,.23-7.88-12.28,1.09,12.89c.13,1.4,.97,1.72,2.54,.96l.12,.45Z"/><path class="cls-1" d="M147.83,275.88c-.3-1.39-1.07-1.77-2.62-1.02l-.1-.46,6.32-3.08,.1,.46c-1.55,.76-1.94,1.7-1.64,3.1l2.59,10.79c.3,1.39,1.07,1.77,2.62,1.02l.12,.45-6.26,3.05-.12-.45c1.49-.73,1.88-1.68,1.58-3.07l-2.59-10.79Z"/><path class="cls-1" d="M165.97,267.03c-.36-1.36-1.07-1.77-2.62-1.02l-.12-.45,4.93-2.41,.12,.45c-1.55,.76-2,1.73-1.64,3.1l2.02,8.37c.7,2.84-.17,5.86-3.78,7.62-4.83,2.36-7.44,.27-8.17-2.9l-1.76-7.39c-.36-1.36-1.07-1.77-2.62-1.02l-.12-.45,6.32-3.08,.12,.45c-1.55,.76-2,1.73-1.64,3.1l1.87,7.76c.52,2.3,2.11,4.59,5.97,2.72,2.12-1.03,3.95-3.19,3.06-6.76l-1.93-8.09Z"/><path class="cls-1" d="M176.69,276.66l-4.97,2.43-.12-.45c1.49-.73,1.7-1.69,1.62-3.09l-.74-11.7c-.1-1.44-1.05-1.78-2.01-1.32l-.1-.46,4.04-1.97c.45,.92,1.3,2.14,2.21,3.61l4.59,7.35,2.18-15.34,4.32-2.11,.1,.46c-1.53,.75-1.98,1.67-1.62,3.09l2.73,10.72c.34,1.37,1.05,1.78,2.6,1.03l.12,.45-6.3,3.07-.12-.45c1.55-.76,1.96-1.71,1.62-3.09l-3.03-11.84-2.53,17.35-.47,.23-7.88-12.28,1.09,12.89c.13,1.4,.97,1.72,2.54,.96l.12,.45Z"/><path class="cls-1" d="M197.56,266.48l-.12-.45c1.49-.73,1.88-1.67,1.58-3.07l-2.59-10.79c-.3-1.39-1.07-1.78-2.62-1.02l-.1-.46,6.62-3.23c4.3-2.1,7.97-.94,9.71,2.63,2.35,4.81,.39,10.1-4.79,12.63l-7.7,3.76Zm7.25-4.17c3.14-1.53,4.83-4.37,3.61-9.35-.24-.97-.57-1.79-.93-2.52-1.38-2.83-3.74-4-7.41-2.21l-2.06,1,3.02,12.65c.37,1.53,1,1.78,2.54,1.03l1.22-.6Z"/><path class="cls-1" d="M221.99,251.44c-.95-.87-2.15-2.18-3.35-2.68-.62-.28-1.22-.34-1.81-.05l-.9,.44,1.22,4.98c.34,1.37,.7,1.95,2.62,1.02l.12,.45-6.26,3.05-.12-.45c1.49-.73,1.88-1.67,1.58-3.07l-2.59-10.79c-.34-1.37-1.07-1.78-2.62-1.02l-.12-.45,6.24-3.04c2.81-1.37,5.12-.48,5.9,1.39,.95,2.36-.95,4.98-3.85,6.59,2.7-.46,5.39,1.89,6.94,3,.94,.68,1.81,1.01,2.6,.62,.35-.17,.67-.43,.75-.54l-.04,.5c-.28,.31-.85,.79-1.89,1.3-2.22,1.08-3.18-.11-4.42-1.25Zm-6.19-2.91l.96-.47c2.12-1.03,3.95-3.49,2.91-5.88-.59-1.48-2.27-2.37-4.45-1.31l-1.14,.56,1.73,7.1Z"/><path class="cls-1" d="M226.7,237.41c-.3-1.39-1.07-1.77-2.62-1.02l-.1-.46,6.32-3.08,.1,.46c-1.55,.76-1.94,1.7-1.64,3.1l2.59,10.79c.3,1.39,1.07,1.77,2.62,1.02l.12,.45-6.26,3.05-.12-.45c1.49-.73,1.88-1.67,1.58-3.07l-2.59-10.79Z"/><path class="cls-1" d="M240.36,245.61l-5.03,2.45-.12-.45c1.49-.73,1.7-2.09,1.36-3.46l-2.37-10.4c-.3-1.39-1.07-1.77-2.62-1.02l-.1-.46,3.67-1.79,11.68,8.02-2.49-9.71c-.3-1.39-1.05-1.78-2.6-1.03l-.12-.45,5.07-2.47,.1,.46c-1.55,.76-1.94,1.7-1.64,3.1l3.14,13.32-.51,.25-13-8.77,2.67,10.5c.33,1.35,.98,2.32,2.77,1.45l.12,.45Z"/><path class="cls-1" d="M257.74,237.13l-6.26,3.05-.12-.45c1.49-.73,1.88-1.68,1.58-3.07l-2.59-10.79c-.3-1.39-1.07-1.77-2.62-1.02l-.1-.46,6.32-3.08,.1,.46c-1.55,.76-1.94,1.7-1.64,3.1l1.47,6.12,3.5-7.61c.23-.51,1.03-2.19,.8-2.81-.18-.42-.71-.46-2.01,.17l-.1-.46,5.48-2.67,.1,.46c-1,.49-2.37,3-2.93,4.08l-2.18,4.57,4.94,4.12c2.38,1.99,2.88,2.28,4.45,1.79l.12,.45-5.75,2.8-.12-.45,.59-.29c1.3-.64,.34-1.48-.78-2.37l-4.54-3.82-1.37,2.89,.91,3.82c.3,1.39,1.07,1.77,2.62,1.02l.12,.45Z"/><path class="cls-1" d="M271.91,230.5c-1.96,.95-3.25,.68-4.41,1.24-.31,.15-.58,.31-.84,.61l-1.2-4.79,.43-.21c1.19,3.28,3.69,3.63,5.78,2.6,2.14-1.04,2.74-3.13,1.89-4.86-.65-1.32-1.78-1.68-3.29-1.73l-2.33-.07c-1.67-.07-3.16-.53-3.91-2.08-1.11-2.28-.18-5.03,2.97-6.57,2.18-1.06,4.04-.98,4.78-1.27l.71,3.84-.43,.21c-.54-2.08-1.9-3.64-4.77-2.24-1.77,.86-2.42,2.74-1.67,4.27,.51,1.04,1.34,1.46,2.45,1.5l2.34,.09c1.86,.1,3.73,.3,4.69,2.28,1.22,2.51,.05,5.58-3.19,7.16Z"/></g></g></svg>