<svg width="190" height="136" viewBox="0 0 190 136" fill="none" xmlns="http://www.w3.org/2000/svg">
<path d="M32.7087 80.2642L28.1655 91.3353C28.1655 91.3353 35.3269 93.2702 41.8477 92.2485C48.3685 91.2267 58.0417 83.5426 58.8967 75.857C59.7517 68.1713 55.0489 63.9804 52.6974 61.0779C50.346 58.1762 50.7199 55.5962 53.7128 53.9837C56.7057 52.3712 61.4625 52.6403 64.4553 57.9607L67.9293 49.2548C67.9293 49.2548 58.8967 45.0089 49.3306 49.6308C39.7638 54.2527 39.7638 63.2811 41.5278 66.8821C43.2917 70.483 48.4756 71.8265 48.636 76.126C48.7964 80.4254 45.9639 83.8651 40.9935 83.8109C36.0231 83.7566 35.2213 82.9511 32.7095 80.2642H32.7087ZM61.9299 95.608C61.9299 95.608 64.6157 88.9976 67.3813 81.2989C73.3139 64.9746 74.5967 63.7656 76.7209 63.6846C78.8451 63.6036 78.4849 65.8611 78.4043 67.9573C78.1239 74.8092 68.8246 84.8051 67.1404 86.1356C65.2868 87.4049 65.8575 87.3751 66.3257 87.3048C81.6647 84.9939 86.0469 72.2033 86.4215 69.9458C87.9712 59.7352 82.1458 59.1437 79.0997 59.3049C76.0537 59.4662 66.54 60.7019 66.54 60.7019L52.6974 96.8704L61.9299 95.608ZM91.4983 83.6504C91.4983 83.6504 97.6444 67.9038 98.1255 66.5603C101.386 61.4547 106.356 62.6911 106.356 62.6911L109.563 54.4682C109.563 54.4682 108.013 54.1457 104.699 55.1132C101.386 56.0807 98.2858 60.2724 98.2858 60.2724L99.5687 56.242L92.9947 56.9405L82.145 84.7783L91.4983 83.6504ZM111.861 54.307L101.065 82.1991L110.578 81.1781L121.374 53.1783L111.861 54.307ZM129.07 47.4818L127.306 52.5333L123.298 52.748L120.84 59.4654L124.795 59.1964L116.403 80.2634L125.703 79.0812L133.987 57.6917L138.476 57.1002L140.881 50.5975L136.392 51.0813L139.652 42.8584L129.07 47.4803V47.4818ZM156.862 66.3991C156.459 66.9554 150.983 73.1165 146.708 71.8808C142.433 70.645 144.035 65.8619 145.425 63.0136C146.815 60.1654 150.823 52.1038 153.495 52.6418C154.618 53.1255 154.724 55.0062 150.555 60.4879C149.754 61.6702 148.791 62.6911 145.745 64.6261C145.425 65.2711 145.478 66.0231 151.678 63.8734C157.878 61.7237 160.39 57.1017 160.55 53.5015C160.71 49.9013 155.74 48.7183 152.64 49.4168C149.54 50.1153 140.669 52.534 135.431 64.8944C134.362 67.0976 132.17 76.6105 141.524 77.4702C144.784 77.7392 152.319 75.9655 157.664 67.6356C157.879 67.0441 157.29 65.8084 156.863 66.3991H156.862ZM124.06 41.8794C122.499 40.3097 119.201 41.0816 116.694 43.6027C114.186 46.1238 113.42 49.4397 114.98 51.0094C116.54 52.5791 119.839 51.8073 122.346 49.2861C124.853 46.765 125.62 43.4491 124.06 41.8794ZM171.88 102.621C89.1461 57.8002 40.4037 135.242 40.4037 135.242C30.7844 82.5751 0 89.991 0 89.991C50.9874 72.3638 31.5862 18.9439 31.5862 18.9439C97.3244 77.9532 157.077 0.242188 157.077 0.242188C157.077 0.242188 147.189 31.7353 159.001 37.6465C170.813 43.5576 190 36.679 190 36.679C145.747 65.2161 171.882 102.62 171.882 102.62L171.88 102.621ZM176.156 43.9886C176.156 43.9886 141.737 50.975 149.54 15.9352C149.54 15.9352 100.45 73.627 37.3045 26.3614C37.3045 26.3614 51.3074 70.94 5.12998 88.5948C5.12998 88.5948 37.2779 87.2246 43.5303 119.55C43.5303 119.55 92.2461 62.3686 167.177 96.7635C167.177 96.7635 149.005 67.4201 176.155 43.9886H176.156ZM155.16 79.2837C155.16 78.064 154.174 77.072 152.961 77.072C151.748 77.072 150.761 78.064 150.761 79.2837C150.761 80.5034 151.748 81.4953 152.961 81.4953C154.174 81.4953 155.16 80.5034 155.16 79.2837ZM154.849 79.2837C154.849 80.3306 154.002 81.1827 152.961 81.1827C151.92 81.1827 151.072 80.3306 151.072 79.2837C151.072 78.2367 151.92 77.3838 152.961 77.3838C154.002 77.3838 154.849 78.2359 154.849 79.2837ZM154.217 78.6532C154.117 79.1583 153.782 79.3265 153.414 79.3601L153.849 80.5377H153.18L153.114 80.3704L152.778 79.3945H152.511L152.277 80.5377H151.708L151.942 79.3601L152.277 77.8126H153.28C153.983 77.8126 154.352 78.0143 154.218 78.6532H154.217ZM153.146 78.2826H152.746L152.611 78.9558H153.114C153.381 78.9558 153.549 78.8886 153.614 78.586C153.649 78.3169 153.38 78.2826 153.146 78.2826Z" fill="#02963A"/>
</svg>
